<?xml version="1.0" standalone="no"?><!DOCTYPE svg PUBLIC "-//W3C//DTD SVG 1.1//EN" "http://www.w3.org/Graphics/SVG/1.1/DTD/svg11.dtd"><svg t="1726961751337" class="icon" viewBox="0 0 1024 1024" version="1.1" xmlns="http://www.w3.org/2000/svg" p-id="9584" xmlns:xlink="http://www.w3.org/1999/xlink" width="64" height="64"><path d="M605.61408 309.92384H263.3728a27.83232 27.83232 0 0 0 0 55.64416h342.24128a27.83232 27.83232 0 1 0 0-55.64416z m12.04224 223.10912l13.04576-13.02528a27.83232 27.83232 0 0 0-25.088-39.87456H263.3728a27.83232 27.83232 0 0 0 0 55.64416h342.24128a27.72992 27.72992 0 0 0 12.04224-2.74432z m-105.12384 117.28896H263.3728a27.83232 27.83232 0 1 0 0 55.64416h223.47776z m78.848 46.63296l-19.51744 9.0112h33.75104a27.83232 27.83232 0 0 0 21.83168-45.056z" fill="#d4237a" p-id="9585"></path><path d="M690.52416 597.87264v153.088a45.50656 45.50656 0 0 1-45.44512 45.44512H223.96928a45.50656 45.50656 0 0 1-45.44512-45.44512V264.92928a45.50656 45.50656 0 0 1 45.44512-45.44512H645.12a45.50656 45.50656 0 0 1 45.44512 45.44512v195.2768l55.64416-55.64416v-139.61216A101.21216 101.21216 0 0 0 645.12 163.84H223.96928A101.21216 101.21216 0 0 0 122.88 264.92928v486.01088a101.21216 101.21216 0 0 0 101.08928 101.10976H645.12a101.21216 101.21216 0 0 0 101.10976-101.10976V542.208z m186.18368-192.12288a44.52352 44.52352 0 0 0-62.91456-62.89408z" fill="#d4237a" p-id="9586"></path><path d="M531.08736 625.47968L802.6112 353.95584l62.95552 62.95552-271.52384 271.52384z m-41.7792 85.46304l-11.93984 24.69888a4.97664 4.97664 0 0 0 6.656 6.656l24.69888-11.93984z m26.50112 15.99488l63.67232-30.72-55.97184-55.97184-30.72 63.67232 23.08096 23.08096z" fill="#d4237a" p-id="9587"></path></svg>